<svg version="1.2" xmlns="http://www.w3.org/2000/svg" viewBox="0 0 1479 1545" width="1479" height="1545">
	<title>favicon-svg</title>
	<style>
		.s0 { fill: #010101 } 
	</style>
	<g id="Layer">
		<g id="Layer">
			<path id="Layer" fill-rule="evenodd" class="s0" d="m1478.2 816c-4.8 96.5-19.3 188.3-57.9 280-38.7 86.9-86.9 164.1-154.5 231.7-140.1 140.1-328.3 217.3-526.3 217.3-202.8 0-395.9-62.8-531.1-183.5-135.2-120.7-207.6-289.7-207.6-468.3 0-236.6 120.7-309 284.9-405.6 48.2-28.9 106.2-62.7 164.1-106.2 135.2-91.7 188.3-178.6 231.8-246.2 53.1-77.3 91.7-135.2 207.6-135.2 111 0 217.2 53.1 313.8 149.7 77.3 77.2 144.8 183.4 193.1 299.3 48.3 120.7 72.4 241.4 82.1 367zm-729-656.7c-48.3 72.4-111.1 164.2-251.1 265.6-62.8 48.3-120.7 82.1-173.8 111-164.2 96.6-251.1 149.7-251.1 347.6 0 159.4 62.8 309 183.5 415.3 125.5 111 294.5 168.9 482.8 168.9 178.6 0 347.6-72.4 473.2-197.9 57.9-62.8 106.2-135.2 140-207.6 28.9-82.1 48.3-169 48.3-255.9 0-111.1-24.2-226.9-67.6-338-48.3-106.2-106.3-202.8-178.7-275.2-82.1-82.1-173.8-125.5-265.5-125.5-77.3 0-96.6 33.8-140 91.7z"/>
			<g id="Layer">
				<g id="Layer">
					<g id="Layer">
						<g id="Layer">
							<g id="Layer">
								<path id="Layer" class="s0" d="m942.3 622.8c43.4 33.8 72.4 82.1 82.1 144.9h-111.1c-4.8-33.8-19.3-58-43.4-77.3-24.2-19.3-53.2-28.9-91.8-28.9-38.6 0-77.2 14.4-101.4 43.4-24.1 29-33.8 67.6-33.8 120.7 0 53.1 14.5 96.6 38.7 125.5q43.4 43.5 101.4 43.5c38.6 0 67.5-9.7 91.7-29 24.1-19.3 38.6-43.4 43.4-77.2h111.1c-9.7 57.9-38.6 106.2-82.1 144.8-43.4 33.8-96.6 53.1-164.1 53.1-48.3 0-91.8-9.6-130.4-33.8-38.6-19.3-67.6-53.1-91.7-91.7-24.2-38.6-33.8-86.9-33.8-140 0-53.1 9.6-101.4 33.8-140 24.1-38.7 53.1-67.6 91.7-91.8 38.6-19.3 82.1-33.8 130.4-33.8 57.9 14.5 115.8 29 159.3 67.6z"/>
							</g>
						</g>
					</g>
				</g>
			</g>
		</g>
	</g>
</svg>